<svg xmlns="http://www.w3.org/2000/svg" viewBox="0 0 24 24" fill="none" stroke="currentColor" stroke-width="2" stroke-linecap="round" stroke-linejoin="round">
  <path d="M12 8V12L14 14" />
  <path d="M3.05 11C3.44 6.8 6.8 3.44 11 3.05" stroke-dasharray="2 2"/>
  <path d="M20.95 13C20.56 17.2 17.2 20.56 13 20.95" stroke-dasharray="2 2"/>
  <path d="M20.95 11C20.56 6.8 17.2 3.44 13 3.05C11 3.05 10.11 3.05 9 3.5L3 6" />
  <path d="M3.05 13C3.44 17.2 6.8 20.56 11 20.95C13 20.95 13.89 20.95 15 20.5L21 18" />
  <path d="M3 3V6H6" />
  <path d="M21 21V18H18" />
</svg>
