<?xml version="1.0" encoding="UTF-8"?>
<svg xmlns="http://www.w3.org/2000/svg" viewBox="0 0 725 344" width="725" height="344">
<path d="M359.27 136.87C361.26 137.02 363.24 137.17 365.22 137.32C372.91 137.39 385.75 143.86 391.23 149.33C391.18 153.43 385.98 156.4 383.25 159.14C380.21 159.1 379.04 156.66 376.62 155.27C372.65 152.99 366.73 149.76 362.1 150.11C360.7 148.25 356.36 148.98 354.2 149.33C354.06 149.59 353.92 149.86 353.78 150.12C344.26 149.23 327.18 161.25 327.94 171.84C325.4 172.98 326.62 179.17 326.52 181.71C327 182.07 327.47 182.42 327.95 182.78C327.9 185.5 329.55 188.19 330.97 190.44C338.48 202.42 353.49 205.57 366.75 202.82C370.12 202.12 374.7 200.13 377.53 198.11C378.87 197.15 380.55 194.87 382.33 194.87C384.79 194.87 389.5 200.5 391.23 202.22C391.02 205.31 388.48 206.52 386.22 208.17C380.14 212.6 372.85 215.89 365.24 216.17C360.22 216.18 355.2 216.18 350.19 216.18C333.07 215.45 314.25 200.94 313.19 182.85C313.19 179.05 313.2 175.25 313.2 171.45C314.2 149.39 339.28 135.49 359.27 136.87ZM443.24 136.87C444.75 138.25 449.02 137.97 450.89 137.32C458.07 138.44 473.41 143.16 476.95 150.24C475.88 152.98 471.01 159.57 467.62 159.12C465.67 158.86 464.1 156.57 462.52 155.56C457.89 152.59 451.97 149.72 446.4 150.09C444.99 148.52 440.84 148.35 439.52 150.1C435.77 149.82 432.83 151.66 429.53 152.98C412.71 159.73 407.9 179.99 419.04 194.02C426.65 203.6 441.49 205.02 452.47 202.82C456.39 202.04 460.49 200.01 463.71 197.65C464.92 196.77 466.39 194.73 468.06 194.73C469.78 194.73 476.18 201.6 476.95 203.14C472.85 211.34 458.98 215.89 450.5 216.17C445.64 216.17 440.78 216.16 435.91 216.16C421.13 215.78 401.01 201.73 399.33 186.04C399.31 184.46 400.04 181.87 398.6 180.99C398.41 178.87 398.21 176.75 398.02 174.64C399.63 173.3 400.3 166.83 400.23 164.61C400.71 162.08 402.4 159.86 403.75 157.75C412.15 144.65 427.27 135.83 443.24 136.87ZM174.72 139.53C174.34 143.97 174.6 148.52 174.6 152.98C174.6 154.57 174.05 156.99 175.47 157.84C175.47 163.89 175.47 169.94 175.47 175.99C175.26 176.07 175.06 176.15 174.85 176.23C174.99 176.69 175.14 177.15 175.29 177.6C174.5 178.85 174.02 180.58 175.47 181.5C175.65 187.95 175.83 194.4 176.01 200.86C178.12 202.5 183.15 201.54 185.81 201.54C194.63 201.54 203.44 201.54 212.26 201.54C215.23 201.54 222 200.23 223.89 202.91C223.9 206.56 223.91 210.2 223.92 213.85C223.68 214.31 223.44 214.76 223.2 215.22C208.15 215.22 193.11 215.22 178.06 215.22C174.83 215.22 164 216.19 161.87 214.54C159.64 209.87 161.79 199.71 161.3 194.25C161.31 176.61 161.31 158.98 161.32 141.35C161.77 136.77 170.42 138.62 173.95 138.62C174.21 138.92 174.46 139.22 174.72 139.53ZM295.95 152.68C294.99 151.33 290.49 151.26 289.55 152.68C278.48 153.41 267.13 152.75 256.03 152.75C250.72 152.75 243.94 153.9 238.79 152.67C234.49 151.64 233.72 146.73 234.46 143.03C235.73 136.67 245.01 138.62 249.65 138.62C261.2 138.62 272.75 138.62 284.3 138.62C289.19 138.62 295.43 137.57 300.17 138.7C304.34 139.7 305.66 146.89 303.44 150C301.49 152.73 299.08 152.89 295.95 152.68ZM561.76 146.89C561.53 146.88 561.31 146.88 561.08 146.88C560.27 148.08 559.46 149.27 558.65 150.47C553.45 158.91 546.85 166.23 541.03 174.2C538.36 177.85 536.4 182.44 532.58 185.16C530.76 185.96 531.58 190.33 531.58 192.19C531.59 199.29 530.92 206.82 531.74 213.85C530.78 215.9 520.67 215.6 518.43 214.89C517.83 207.57 518.3 200 518.32 192.65C518.33 190.46 519.39 186.13 517.08 185.13C506.43 170.99 495.78 156.86 485.12 142.72C484.8 141.5 484.47 140.29 484.14 139.07C485.47 138.34 497.38 138.12 498.82 138.86C501 139.97 503.1 144.83 504.55 146.81C511.04 155.71 517.7 164.77 524.6 173.27C528.17 172.5 530.35 166.47 532.36 163.71C534.01 161.45 536.16 159.56 537.81 157.3C541 152.93 543.54 147.94 547.4 144.09C548.8 142.69 550.1 139.35 552.04 138.7C553.8 138.12 556.49 138.62 558.34 138.62C560.65 138.62 564.48 137.87 566.32 139.3C566.29 141.83 563.74 145.31 561.76 146.89ZM238.47 170.47C257.17 170.46 275.86 170.46 294.56 170.46C301.64 171.55 300.88 182.76 293.79 184.13C288.72 185.1 282.63 184.21 277.46 184.21C266.37 184.21 255.27 184.21 244.17 184.21C240.97 184.21 236.96 184.76 235.07 181.46C233.1 178.03 233.96 171.12 238.47 170.47ZM238.33 201.63C242.95 200.7 248.57 201.54 253.29 201.54C263.63 201.54 273.96 201.54 284.3 201.54C288.43 201.54 298.12 200.37 301.54 202.08C304.69 203.66 304.61 208.35 304.12 211.33C303.15 217.29 293.04 215.22 288.86 215.22C277.31 215.22 265.76 215.22 254.21 215.22C249.18 215.22 242.76 216.3 237.88 215.13C232.45 213.84 233.08 202.68 238.33 201.63Z" fill="#ffffff" fill-rule="evenodd" stroke="#ffffff" stroke-width="0.25" stroke-linejoin="round"/>
<path d="M359.27 136.87C361.26 137.02 363.24 137.17 365.22 137.32C363.24 137.17 361.26 137.02 359.27 136.87ZM443.24 136.87C445.79 137.02 448.34 137.17 450.89 137.32C449.02 137.97 444.75 138.25 443.24 136.87ZM484.14 139.07C484.47 140.29 484.8 141.5 485.12 142.72C484.33 141.73 483.54 140.74 482.74 139.76C483.21 139.53 483.67 139.3 484.14 139.07ZM174.72 139.53C176.58 142.07 175.7 154.22 175.47 157.84C174.05 156.99 174.6 154.57 174.6 152.98C174.6 148.52 174.34 143.97 174.72 139.53ZM161.32 141.35C161.31 158.98 161.31 176.61 161.3 194.25C160.14 192.53 160.96 184.32 160.96 181.71C160.96 172.13 160.96 162.56 160.96 152.98C160.96 149.77 159.93 144.16 161.32 141.35ZM561.76 146.89C561.69 147.37 561.61 147.85 561.53 148.33C561.5 148.36 561.47 148.39 561.44 148.42C560.51 149.1 559.58 149.79 558.65 150.47C559.46 149.27 560.27 148.08 561.08 146.88C561.31 146.88 561.53 146.88 561.76 146.89ZM446.4 150.09C444.11 150.09 441.82 150.1 439.52 150.1C440.84 148.35 444.99 148.52 446.4 150.09ZM362.1 150.11C359.33 150.11 356.56 150.12 353.78 150.12C353.92 149.86 354.06 149.59 354.2 149.33C356.36 148.98 360.7 148.25 362.1 150.11ZM295.95 152.68C293.82 152.68 291.68 152.68 289.55 152.68C290.49 151.26 294.99 151.33 295.95 152.68ZM400.23 164.61C400.3 166.83 399.63 173.3 398.02 174.64C398.33 172.76 399.22 170.43 398.39 168.48C399 167.19 399.61 165.9 400.23 164.61ZM294.56 170.46C275.86 170.46 257.17 170.46 238.47 170.47C257.17 170.46 275.86 170.46 294.56 170.46ZM313.2 171.45C313.2 175.25 313.19 179.05 313.19 182.85C313.19 179.05 313.2 175.25 313.2 171.45ZM327.94 171.84C327.94 175.49 327.95 179.14 327.95 182.78C327.47 182.42 327 182.07 326.52 181.71C326.62 179.17 325.4 172.98 327.94 171.84ZM175.47 175.99C175.47 177.83 175.47 179.66 175.47 181.5C174.02 180.58 174.5 178.85 175.29 177.6C175.14 177.15 174.99 176.69 174.85 176.23C175.06 176.15 175.26 176.07 175.47 175.99ZM398.6 180.99C400.04 181.87 399.31 184.46 399.33 186.04C399.06 185.96 398.79 185.89 398.53 185.81C398.55 184.2 398.57 182.59 398.6 180.99ZM517.08 185.13C519.39 186.13 518.33 190.46 518.32 192.65C518.3 200 517.83 207.57 518.43 214.89C516.98 213 517.53 209.02 517.53 206.33C517.53 199.63 518.7 191.59 517.08 185.13ZM532.58 185.16C532.3 194.72 532.02 204.29 531.74 213.85C530.92 206.82 531.59 199.29 531.58 192.19C531.58 190.33 530.76 185.96 532.58 185.16ZM223.89 202.91C223.9 206.56 223.91 210.2 223.92 213.85C223.91 210.2 223.9 206.56 223.89 202.91ZM450.5 216.17C446.84 218.3 439.57 218.32 435.91 216.16C440.78 216.16 445.64 216.17 450.5 216.17ZM350.19 216.18C355.2 216.18 360.22 216.18 365.24 216.17C361.48 218.32 353.95 218.3 350.19 216.18Z" fill="#e4e5e5" fill-rule="evenodd" stroke="#e4e5e5" stroke-width="0.25" stroke-linejoin="round"/>
</svg>